HIERARCHY
ROOT CG
{
	OFFSET 0.000000 0.000000 27.772259
	CHANNELS 6 Xposition Yposition Zposition Xrotation Yrotation Zrotation
	JOINT Pelvis
	{
		OFFSET 0.000000 0.000000 0.000000
		CHANNELS 3 Xrotation Yrotation Zrotation
		JOINT Spine
		{
			OFFSET -0.000017 -10.490843 -0.495483
			CHANNELS 3 Xrotation Yrotation Zrotation
			JOINT Spine1
			{
				OFFSET -0.000010 -22.678980 0.018061
				CHANNELS 3 Xrotation Yrotation Zrotation
				JOINT Spine2
				{
					OFFSET -0.000010 -22.678967 0.018061
					CHANNELS 3 Xrotation Yrotation Zrotation
					JOINT Spine3
					{
						OFFSET -0.000010 -22.678982 0.018059
						CHANNELS 3 Xrotation Yrotation Zrotation
						JOINT Neck
						{
							OFFSET -0.000012 -22.678986 -1.289251
							CHANNELS 3 Xrotation Yrotation Zrotation
							JOINT Neck1
							{
								OFFSET -0.000007 -16.255905 0.012947
								CHANNELS 3 Xrotation Yrotation Zrotation
								JOINT Head
								{
									OFFSET -0.000005 -10.784607 -0.287502
									CHANNELS 3 Xrotation Yrotation Zrotation
									JOINT Jaw01
									{
										OFFSET 0.000031 7.782959 5.073944
										CHANNELS 3 Xrotation Yrotation Zrotation
										JOINT Jaw02
										{
											OFFSET 0.000004 -34.927139 -18.883980
											CHANNELS 3 Xrotation Yrotation Zrotation
											End Site
											{
												OFFSET -0.000170 8.372803 -38.812450
											}
										}
									}
									JOINT Nose
									{
										OFFSET -0.000002 -25.700912 7.222265
										CHANNELS 3 Xrotation Yrotation Zrotation
										End Site
										{
											OFFSET -0.000090 0.641281 -21.715439
										}
									}
									JOINT L_EyeSocket
									{
										OFFSET 7.352326 -19.832718 14.164183
										CHANNELS 3 Xrotation Yrotation Zrotation
										JOINT L_Eye
										{
											OFFSET -0.000868 -0.001053 0.016003
											CHANNELS 3 Xrotation Yrotation Zrotation
											End Site
											{
												OFFSET -0.001505 -0.001846 0.027969
											}
										}
										JOINT L_Eyelid_Top
										{
											OFFSET -0.001004 -0.002625 0.032516
											CHANNELS 3 Xrotation Yrotation Zrotation
											End Site
											{
												OFFSET -0.013218 0.005753 0.024086
											}
										}
										JOINT L_Eyelid_Bottom
										{
											OFFSET -0.001194 -0.002777 0.035381
											CHANNELS 3 Xrotation Yrotation Zrotation
											End Site
											{
												OFFSET -0.010032 0.008636 -0.024754
											}
										}
									}
									JOINT R_EyeSocket
									{
										OFFSET -7.352252 -19.832748 14.164206
										CHANNELS 3 Xrotation Yrotation Zrotation
										JOINT R_Eye
										{
											OFFSET 0.000875 -0.001068 0.015991
											CHANNELS 3 Xrotation Yrotation Zrotation
											End Site
											{
												OFFSET 0.001505 -0.001846 0.027962
											}
										}
										JOINT R_Eyelid_Top
										{
											OFFSET 0.001021 -0.002625 0.032516
											CHANNELS 3 Xrotation Yrotation Zrotation
											End Site
											{
												OFFSET 0.013214 0.005753 0.024078
											}
										}
										JOINT R_Eyelid_Bottom
										{
											OFFSET 0.001170 -0.002762 0.035366
											CHANNELS 3 Xrotation Yrotation Zrotation
											End Site
											{
												OFFSET 0.010029 0.008636 -0.024746
											}
										}
									}
								}
								JOINT Neck_Fat
								{
									OFFSET 0.000044 -9.595100 -17.491512
									CHANNELS 3 Xrotation Yrotation Zrotation
									End Site
									{
										OFFSET -0.000036 15.369423 -0.000007
									}
								}
							}
						}
						JOINT L_Clavicle
						{
							OFFSET 4.567107 -11.666092 -3.750029
							CHANNELS 3 Xrotation Yrotation Zrotation
							JOINT L_UpperArm
							{
								OFFSET 20.725666 -0.000053 -0.000032
								CHANNELS 3 Xrotation Yrotation Zrotation
								JOINT L_Forearm
								{
									OFFSET 5.265112 -0.585754 -20.155697
									CHANNELS 3 Xrotation Yrotation Zrotation
									JOINT L_Hand
									{
										OFFSET 2.653017 -10.877708 -16.383667
										CHANNELS 3 Xrotation Yrotation Zrotation
										JOINT L_Finger0
										{
											OFFSET -4.206146 -4.328911 -5.034346
											CHANNELS 3 Xrotation Yrotation Zrotation
											JOINT L_Finger01
											{
												OFFSET 0.084272 -1.788536 -4.181065
												CHANNELS 3 Xrotation Yrotation Zrotation
												End Site
												{
													OFFSET 3.261885 3.094673 -0.685818
												}
											}
										}
										JOINT L_Finger1
										{
											OFFSET -1.039112 -6.775742 -3.499998
											CHANNELS 3 Xrotation Yrotation Zrotation
											JOINT L_Finger11
											{
												OFFSET 1.320335 -3.040672 -6.425793
												CHANNELS 3 Xrotation Yrotation Zrotation
												End Site
												{
													OFFSET -1.244579 6.832077 -2.013330
												}
											}
										}
										JOINT L_Finger2
										{
											OFFSET 2.531296 -5.656487 -3.286415
											CHANNELS 3 Xrotation Yrotation Zrotation
											JOINT L_Finger21
											{
												OFFSET 1.991665 -2.402016 -5.957748
												CHANNELS 3 Xrotation Yrotation Zrotation
												End Site
												{
													OFFSET -2.793068 5.800873 -1.944178
												}
											}
										}
										JOINT L_Finger3
										{
											OFFSET 5.474075 -3.302338 -2.655975
											CHANNELS 3 Xrotation Yrotation Zrotation
											JOINT L_Finger31
											{
												OFFSET 2.026943 -1.267532 -5.961166
												CHANNELS 3 Xrotation Yrotation Zrotation
												End Site
												{
													OFFSET -4.375172 4.343658 -1.800320
												}
											}
										}
										JOINT L_Finger4
										{
											OFFSET 4.825745 1.085899 -2.321970
											CHANNELS 3 Xrotation Yrotation Zrotation
											JOINT L_Finger41
											{
												OFFSET 3.358261 -1.829651 -3.744434
												CHANNELS 3 Xrotation Yrotation Zrotation
												End Site
												{
													OFFSET -3.843296 2.955200 -2.267633
												}
											}
										}
									}
								}
							}
						}
						JOINT R_Clavicle
						{
							OFFSET -4.567111 -11.666092 -3.750036
							CHANNELS 3 Xrotation Yrotation Zrotation
							JOINT R_UpperArm
							{
								OFFSET -20.725670 -0.000031 0.000038
								CHANNELS 3 Xrotation Yrotation Zrotation
								JOINT R_Forearm
								{
									OFFSET -5.265285 -0.585762 -20.155655
									CHANNELS 3 Xrotation Yrotation Zrotation
									JOINT R_Hand
									{
										OFFSET -2.653147 -10.877739 -16.383663
										CHANNELS 3 Xrotation Yrotation Zrotation
										JOINT R_Finger0
										{
											OFFSET 4.206116 -4.328888 -5.034388
											CHANNELS 3 Xrotation Yrotation Zrotation
											JOINT R_Finger01
											{
												OFFSET -0.084324 -1.788544 -4.181051
												CHANNELS 3 Xrotation Yrotation Zrotation
												End Site
												{
													OFFSET -3.261890 3.094666 -0.685791
												}
											}
										}
										JOINT R_Finger1
										{
											OFFSET 1.039101 -6.775711 -3.499994
											CHANNELS 3 Xrotation Yrotation Zrotation
											JOINT R_Finger11
											{
												OFFSET -1.320374 -3.040672 -6.425779
												CHANNELS 3 Xrotation Yrotation Zrotation
												End Site
												{
													OFFSET 1.244556 6.832077 -2.013342
												}
											}
										}
										JOINT R_Finger2
										{
											OFFSET -2.531307 -5.656464 -3.286409
											CHANNELS 3 Xrotation Yrotation Zrotation
											JOINT R_Finger21
											{
												OFFSET -1.991707 -2.402016 -5.957708
												CHANNELS 3 Xrotation Yrotation Zrotation
												End Site
												{
													OFFSET 2.793037 5.800858 -1.944197
												}
											}
										}
										JOINT R_Finger3
										{
											OFFSET -5.474091 -3.302330 -2.655947
											CHANNELS 3 Xrotation Yrotation Zrotation
											JOINT R_Finger31
											{
												OFFSET -2.026993 -1.267532 -5.961157
												CHANNELS 3 Xrotation Yrotation Zrotation
												End Site
												{
													OFFSET 4.375156 4.343674 -1.800358
												}
											}
										}
										JOINT R_Finger4
										{
											OFFSET -4.825756 1.085922 -2.321926
											CHANNELS 3 Xrotation Yrotation Zrotation
											JOINT R_Finger41
											{
												OFFSET -3.358307 -1.829651 -3.744390
												CHANNELS 3 Xrotation Yrotation Zrotation
												End Site
												{
													OFFSET 3.843273 2.955208 -2.267666
												}
											}
										}
									}
								}
							}
						}
					}
				}
			}
		}
		JOINT Tail01
		{
			OFFSET -0.000010 10.922326 -0.017508
			CHANNELS 3 Xrotation Yrotation Zrotation
			JOINT Tail02
			{
				OFFSET -0.000022 21.986111 0.000013
				CHANNELS 3 Xrotation Yrotation Zrotation
				JOINT Tail03
				{
					OFFSET -0.000022 21.986118 0.000002
					CHANNELS 3 Xrotation Yrotation Zrotation
					JOINT Tail04
					{
						OFFSET -0.000022 21.986122 0.000004
						CHANNELS 3 Xrotation Yrotation Zrotation
						JOINT Tail05
						{
							OFFSET -0.000022 21.986099 0.000010
							CHANNELS 3 Xrotation Yrotation Zrotation
							JOINT Tail06
							{
								OFFSET -0.000022 21.986099 0.000006
								CHANNELS 3 Xrotation Yrotation Zrotation
								JOINT Tail07
								{
									OFFSET -0.000022 21.986099 0.000000
									CHANNELS 3 Xrotation Yrotation Zrotation
									JOINT Tail08
									{
										OFFSET -0.000022 21.984848 0.000050
										CHANNELS 3 Xrotation Yrotation Zrotation
										JOINT Tail09
										{
											OFFSET -0.000025 21.926025 -1.606211
											CHANNELS 3 Xrotation Yrotation Zrotation
											JOINT Tail10
											{
												OFFSET -0.000027 21.750092 -3.203882
												CHANNELS 3 Xrotation Yrotation Zrotation
												End Site
												{
													OFFSET -0.000036 4.767395 21.461668
												}
											}
										}
									}
								}
							}
						}
					}
				}
			}
		}
		JOINT L_Thigh
		{
			OFFSET 24.788780 0.000021 -0.000034
			CHANNELS 3 Xrotation Yrotation Zrotation
			JOINT L_Calf
			{
				OFFSET 4.720837 4.161326 -21.049969
				CHANNELS 3 Xrotation Yrotation Zrotation
				JOINT L_Foot
				{
					OFFSET 2.154160 21.114433 -11.949743
					CHANNELS 3 Xrotation Yrotation Zrotation
					JOINT L_Toe0
					{
						OFFSET 4.557564 9.251841 -8.735286
						CHANNELS 3 Xrotation Yrotation Zrotation
						End Site
						{
							OFFSET 4.555542 -12.646044 1.018752
						}
					}
					JOINT L_Toe1
					{
						OFFSET 2.346291 5.845602 -11.687160
						CHANNELS 3 Xrotation Yrotation Zrotation
						End Site
						{
							OFFSET 5.347954 -12.298279 1.365644
						}
					}
					JOINT L_Toe2
					{
						OFFSET -0.356020 3.902458 -12.541145
						CHANNELS 3 Xrotation Yrotation Zrotation
						End Site
						{
							OFFSET 3.916235 -12.806129 1.542549
						}
					}
					JOINT L_Toe3
					{
						OFFSET -4.603447 3.183935 -12.435249
						CHANNELS 3 Xrotation Yrotation Zrotation
						End Site
						{
							OFFSET 3.810858 -12.587427 2.957583
						}
					}
					JOINT L_Toe4
					{
						OFFSET -7.144358 6.231495 -10.072764
						CHANNELS 3 Xrotation Yrotation Zrotation
						End Site
						{
							OFFSET 3.810858 -12.587425 2.957585
						}
					}
				}
			}
		}
		JOINT R_Thigh
		{
			OFFSET -24.788780 -0.000024 0.000034
			CHANNELS 3 Xrotation Yrotation Zrotation
			JOINT R_Calf
			{
				OFFSET -4.720922 4.161324 -21.049952
				CHANNELS 3 Xrotation Yrotation Zrotation
				JOINT R_Foot
				{
					OFFSET -2.154238 21.114414 -11.949730
					CHANNELS 3 Xrotation Yrotation Zrotation
					JOINT R_Toe0
					{
						OFFSET -4.557598 9.251823 -8.735270
						CHANNELS 3 Xrotation Yrotation Zrotation
						End Site
						{
							OFFSET -4.555508 -12.646051 1.018756
						}
					}
					JOINT R_Toe1
					{
						OFFSET -2.346325 5.845589 -11.687157
						CHANNELS 3 Xrotation Yrotation Zrotation
						End Site
						{
							OFFSET -5.347919 -12.298286 1.365654
						}
					}
					JOINT R_Toe2
					{
						OFFSET 0.355980 3.902462 -12.541145
						CHANNELS 3 Xrotation Yrotation Zrotation
						End Site
						{
							OFFSET -3.916199 -12.806131 1.542559
						}
					}
					JOINT R_Toe3
					{
						OFFSET 4.603411 3.183941 -12.435266
						CHANNELS 3 Xrotation Yrotation Zrotation
						End Site
						{
							OFFSET -3.810825 -12.587429 2.957591
						}
					}
					JOINT R_Toe4
					{
						OFFSET 7.144323 6.231503 -10.072779
						CHANNELS 3 Xrotation Yrotation Zrotation
						End Site
						{
							OFFSET -3.810825 -12.587433 2.957584
						}
					}
				}
			}
		}
	}
}
MOTION
Frames: 4
Frame Time: 0.033333
0.000000 0.000000 52.000000 0.000000 -0.000000 0.000044 -10.837224 -0.000108 -0.000010 -1.044691 0.000016 -0.000000 8.114403 -0.000004 0.000005 10.872716 -0.000005 0.000007 3.832281 -0.000000 -0.000001 -6.986526 0.000003 -0.000007 7.984417 -0.000013 0.000005 11.417345 0.000020 -0.000057 -11.537024 -0.000053 0.000048 0.000013 0.000000 -0.000000 -0.000001 0.000000 -0.000000 -0.000005 0.000007 -0.000018 0.000124 -0.000078 0.000011 0.000002 -0.000005 -0.000003 0.000014 0.000007 0.000009 0.000007 0.000000 0.000007 0.000123 0.000078 -0.000017 0.000005 -0.000001 0.000002 0.000002 -0.000004 -0.000003 0.000001 0.000000 -0.000000 -0.000860 4.114584 11.904647 22.095826 -12.972124 -29.952036 0.008871 -0.001394 0.002360 -0.000005 -0.000006 -0.000013 -0.000001 0.000001 -0.000004 0.000004 0.000002 0.000001 0.000001 0.000002 -0.000002 0.000004 0.000001 -0.000000 -0.000002 0.000001 -0.000006 -0.000001 0.000003 0.000001 0.000009 0.000002 0.000001 0.000000 -0.000001 0.000003 0.000004 0.000000 0.000007 -0.000005 0.000003 0.000003 -0.000908 -4.114891 -11.904629 8.333278 18.513146 28.360709 -12.770090 -2.369031 3.159518 -3.098987 -14.348626 -6.899212 -0.000006 -0.000001 -0.000004 -0.000001 -0.000000 0.000004 0.000001 -0.000008 0.000004 0.000003 0.000000 -0.000000 0.000005 -0.000006 -0.000000 -0.000004 -0.000003 0.000006 0.000005 0.000005 0.000008 0.000002 -0.000001 0.000001 -0.000000 0.000004 -0.000003 -0.000002 0.000014 -0.000001 3.251458 0.000019 -0.000164 7.672002 -0.081733 4.130575 -2.647707 -0.665804 4.072452 4.228295 0.034372 -5.377076 8.594957 -0.297918 -5.332889 2.395419 -0.225056 -9.432188 -0.388765 -0.353738 -9.377661 -0.906456 -1.191345 7.255689 -1.333358 -0.201061 7.112149 2.280100 0.271858 6.920582 -49.319816 -18.755787 -3.691703 23.883008 1.783688 5.207253 12.513393 7.478221 -14.933529 27.466072 13.051571 7.532713 27.693116 14.473789 4.529416 30.409187 9.978628 0.363758 31.058264 7.774930 -4.425288 30.524040 4.588414 -9.917704 -44.877352 9.930871 -12.083236 23.504754 -1.738721 -5.131496 7.016401 7.233245 22.568297 27.466057 -13.051522 -7.532798 27.693120 -14.473745 -4.529497 30.409204 -9.978583 -0.363850 31.058270 -7.774896 4.425202 30.524047 -4.588370 9.917615 
0.000000 0.000000 52.000000 0.000000 -0.000000 0.000044 -10.823318 -0.000110 -0.000010 -1.058611 0.000016 -0.000000 8.106538 -0.000004 0.000005 10.864853 -0.000005 0.000007 3.824419 -0.000000 -0.000001 -6.986525 0.000003 -0.000007 7.964248 -0.000013 0.000005 11.453441 0.000020 -0.000057 -11.537031 -0.000053 0.000048 0.000009 0.000000 -0.000000 -0.000002 0.000000 -0.000000 -0.000002 0.000007 -0.000015 0.000122 -0.000078 0.000010 -0.000000 -0.000003 -0.000003 0.000012 0.000008 0.000007 0.000007 0.000000 0.000010 0.000124 0.000076 -0.000017 0.000009 -0.000001 0.000003 0.000002 -0.000004 -0.000003 -0.000000 -0.000000 -0.000000 -0.000861 4.114584 11.904647 21.735822 -13.342619 -29.932204 0.997054 -0.153570 0.266234 -0.000008 -0.000003 -0.000008 -0.000002 -0.000003 -0.000008 0.000000 0.000002 0.000002 0.000001 -0.000002 0.000001 0.000003 0.000001 -0.000000 0.000000 -0.000001 -0.000003 -0.000005 0.000000 -0.000001 0.000000 0.000001 0.000001 0.000001 0.000000 -0.000002 0.000007 0.000001 0.000005 -0.000002 -0.000001 0.000006 -0.000907 -4.114891 -11.904629 7.705053 18.789268 28.426583 -11.525225 -2.106754 2.874305 -3.098987 -14.348627 -6.899209 -0.000007 -0.000003 -0.000009 -0.000001 -0.000001 0.000002 -0.000000 -0.000007 0.000002 0.000003 -0.000001 0.000001 0.000001 -0.000007 -0.000002 -0.000004 -0.000004 0.000004 0.000005 0.000003 0.000003 0.000003 -0.000002 -0.000001 0.000003 0.000003 -0.000001 -0.000002 0.000012 -0.000001 3.184542 0.000019 -0.000164 7.592033 -0.086346 4.130572 -2.691960 -0.668502 4.072433 4.288016 0.033705 -5.378292 8.814876 -0.309623 -5.334701 2.762996 -0.256717 -9.433079 -0.033862 -0.382435 -9.370047 -0.895043 -1.168007 7.264837 -1.994512 -0.222396 7.137768 0.893794 0.221924 6.958476 -49.201845 -18.796935 -3.682244 24.341056 1.838755 5.298707 11.948831 7.500041 -15.032094 27.466069 13.051571 7.532710 27.693115 14.473789 4.529411 30.409177 9.978625 0.363760 31.058253 7.774930 -4.425290 30.524037 4.588411 -9.917704 -44.922274 10.388340 -11.564404 23.244189 -1.708076 -5.079086 7.481316 6.588112 22.285150 27.466048 -13.051523 -7.532799 27.693122 -14.473748 -4.529495 30.409201 -9.978585 -0.363846 31.058274 -7.774897 4.425205 30.524044 -4.588372 9.917619 
0.000000 0.000000 52.000000 0.000000 -0.000000 0.000044 -10.788537 -0.000112 0.000017 -1.093371 0.000016 -0.000000 8.088156 -0.000004 0.000005 10.846472 -0.000005 0.000007 3.806038 -0.000000 -0.000001 -6.986525 0.000003 -0.000007 7.910953 -0.000013 0.000005 11.557571 0.000020 -0.000058 -11.537024 -0.000053 0.000048 0.000014 0.000000 -0.000000 0.000000 0.000000 -0.000000 -0.000005 0.000007 -0.000018 0.000121 -0.000077 0.000010 -0.000002 -0.000003 0.000000 0.000010 0.000008 0.000010 0.000008 0.000000 0.000007 0.000121 0.000077 -0.000017 0.000005 0.000001 0.000003 0.000003 -0.000004 -0.000003 0.000001 0.000000 -0.000000 -0.000859 4.114583 11.904647 21.450522 -13.712739 -29.916020 2.310153 -0.348542 0.620568 -0.000008 -0.000003 -0.000009 -0.000009 -0.000002 -0.000005 0.000000 0.000001 0.000003 0.000001 -0.000003 -0.000003 0.000006 0.000002 0.000001 -0.000003 -0.000000 -0.000008 0.000002 0.000000 0.000003 0.000003 -0.000003 -0.000004 -0.000000 -0.000001 -0.000002 0.000002 -0.000000 -0.000001 -0.000006 -0.000004 0.000006 -0.000905 -4.114892 -11.904630 6.810270 19.001397 28.632787 -9.793476 -1.752698 2.468708 -3.098987 -14.348629 -6.899213 -0.000003 -0.000004 -0.000013 -0.000000 0.000001 0.000001 0.000003 -0.000006 0.000003 0.000004 -0.000001 0.000001 0.000003 -0.000006 -0.000004 -0.000001 -0.000005 0.000004 0.000006 0.000006 0.000003 0.000002 -0.000001 0.000001 0.000003 0.000004 -0.000008 -0.000002 0.000011 -0.000002 3.115360 0.000019 -0.000164 7.502381 -0.091318 4.130568 -2.757176 -0.671612 4.072582 4.320107 0.036065 -5.379282 9.007300 -0.317334 -5.336753 3.123624 -0.285819 -9.435495 0.373269 -0.410332 -9.363765 -0.749455 -1.124854 7.271912 -2.480439 -0.222932 7.160426 -0.400551 0.187601 7.001033 -49.163131 -18.700518 -3.535425 25.014011 1.921003 5.432292 11.222340 7.302376 -15.224983 27.466066 13.051570 7.532707 27.693113 14.473792 4.529409 30.409180 9.978625 0.363758 31.058250 7.774928 -4.425291 30.524037 4.588413 -9.917708 -44.999055 10.884379 -11.001586 22.803133 -1.656748 -4.990073 8.147850 5.879014 21.948589 27.466052 -13.051526 -7.532801 27.693118 -14.473746 -4.529497 30.409201 -9.978585 -0.363849 31.058277 -7.774897 4.425203 30.524047 -4.588370 9.917616 
0.000000 0.000000 52.000000 0.000000 -0.000000 0.000044 -10.734442 -0.000109 0.000038 -1.147479 0.000015 -0.000000 8.060177 -0.000004 0.000005 10.818495 -0.000005 0.000007 3.778061 -0.000000 -0.000000 -6.986525 0.000003 -0.000007 7.827511 -0.000013 0.000006 11.723519 0.000020 -0.000058 -11.537030 -0.000053 0.000048 0.000008 0.000000 -0.000000 0.000000 0.000000 -0.000000 -0.000001 0.000007 -0.000015 0.000121 -0.000077 0.000010 0.000001 -0.000003 -0.000003 0.000011 0.000007 0.000009 0.000008 0.000000 0.000010 0.000126 0.000078 -0.000017 0.000007 -0.000002 0.000002 0.000003 -0.000004 -0.000001 0.000001 0.000000 -0.000000 -0.000859 4.114583 11.904645 21.243082 -14.075806 -29.895601 3.818312 -0.562178 1.032528 -0.000005 -0.000002 -0.000008 -0.000003 -0.000003 -0.000008 0.000002 0.000001 0.000003 0.000001 -0.000002 0.000000 0.000003 0.000002 0.000001 -0.000003 0.000001 -0.000005 -0.000001 0.000000 0.000003 0.000002 0.000000 0.000001 -0.000002 -0.000006 -0.000001 0.000004 0.000001 0.000003 -0.000010 0.000006 0.000010 -0.000908 -4.114892 -11.904631 5.711235 19.148652 28.950696 -7.699412 -1.341744 1.965031 -3.098991 -14.348631 -6.899213 -0.000003 -0.000002 -0.000006 -0.000002 0.000001 0.000001 0.000003 -0.000007 0.000002 0.000005 -0.000001 0.000000 0.000003 -0.000006 -0.000002 -0.000003 -0.000005 0.000003 0.000006 0.000006 0.000005 0.000001 -0.000001 0.000001 0.000001 0.000005 -0.000006 -0.000003 0.000016 -0.000003 3.045615 0.000019 -0.000164 7.405365 -0.096527 4.130566 -2.840654 -0.675075 4.072931 4.324483 0.041160 -5.380028 9.169475 -0.321364 -5.339019 3.470805 -0.310372 -9.439252 0.816515 -0.436631 -9.358931 -0.485671 -1.064598 7.276927 -2.792649 -0.204744 7.179870 -1.558154 0.170096 7.046179 -49.193109 -18.489344 -3.273743 25.853610 2.025832 5.597637 10.375116 6.923826 -15.493509 27.466067 13.051571 7.532713 27.693113 14.473791 4.529411 30.409184 9.978625 0.363760 31.058253 7.774930 -4.425288 30.524037 4.588415 -9.917703 -45.110626 11.396660 -10.418540 22.219348 -1.589881 -4.871680 8.970059 5.137325 21.577317 27.466052 -13.051527 -7.532800 27.693118 -14.473746 -4.529497 30.409204 -9.978585 -0.363846 31.058270 -7.774897 4.425204 30.524047 -4.588372 9.917617 
